<svg xmlns="http://www.w3.org/2000/svg" width="24" height="25" viewBox="0 0 24 25" fill="none">
    <path d="M14.9809 24.0026H9.01631C7.51615 24.0026 6.29437 22.7808 6.29437 21.2806V19.5794H8.58328V21.2806C8.58328 21.5178 8.77918 21.7111 9.01631 21.7111H14.9809C15.2206 21.7111 15.4139 21.5178 15.4139 21.2806V2.72194C15.4139 2.4848 15.2206 2.28891 14.9809 2.28891H9.01631C8.77918 2.28891 8.58328 2.48223 8.58328 2.72194V8.5834H6.29437V2.72194C6.29437 1.22178 7.51615 0 9.01631 0H14.9809C16.481 0 17.7028 1.22178 17.7028 2.72194V21.2806C17.7028 22.7808 16.4836 24.0026 14.9809 24.0026Z" fill="#024089"/>
    <path d="M21.2781 17.7056H2.72194C1.22178 17.7056 0 16.4838 0 14.9836V9.01906C0 7.5189 1.2192 6.29712 2.72194 6.29712H6.29965V8.58603H2.72194C2.48223 8.58603 2.28891 8.77935 2.28891 9.01906V14.9836C2.28891 15.2208 2.48223 15.4167 2.72194 15.4167H21.2781C21.5178 15.4167 21.7111 15.2233 21.7111 14.9836V9.01906C21.7111 8.78192 21.5178 8.58603 21.2781 8.58603H19.5047V6.29712H21.2781C22.7782 6.29712 24 7.5189 24 9.01906V14.9836C24 16.4838 22.7808 17.7056 21.2781 17.7056Z" fill="#009FE3"/>
</svg>