<svg width="43" height="20" viewBox="0 0 43 20" fill="none" xmlns="http://www.w3.org/2000/svg">
<path d="M3.18687 12.6647C3.32293 12.7074 3.49744 12.7367 3.71082 12.7527C3.92421 12.7687 4.12829 12.7768 4.32224 12.7768C4.71014 12.7768 5.03305 12.6886 5.29019 12.5125C5.54728 12.3363 5.67588 12.0617 5.67588 11.6877C5.67588 11.3353 5.56892 11.0846 5.35559 10.9351C5.14221 10.7855 4.81704 10.7108 4.38055 10.7108H3.18687V12.6647ZM3.18687 8.75696H4.24933C4.66685 8.75696 4.96991 8.67155 5.15944 8.50074C5.3485 8.32994 5.44306 8.07898 5.44306 7.74794C5.44306 7.45975 5.3339 7.23026 5.11568 7.05924C4.89746 6.88869 4.56967 6.80303 4.13318 6.80303C3.9874 6.80303 3.82041 6.80855 3.63087 6.81901C3.44176 6.82974 3.29378 6.84573 3.18687 6.86698V8.75696ZM4.13318 14.9228C3.96792 14.9228 3.77402 14.9173 3.55092 14.9068C3.32782 14.896 3.0972 14.8748 2.8595 14.8428C2.62184 14.8106 2.38639 14.7705 2.15357 14.7226C1.92075 14.6747 1.70737 14.6081 1.51342 14.5225C0.979752 14.2982 0.712891 13.9085 0.712891 13.3534V5.87415C0.712891 5.64997 0.768574 5.47651 0.880362 5.35366C0.991677 5.23107 1.14454 5.13208 1.33849 5.0574C1.6685 4.92929 2.08108 4.83582 2.57588 4.77713C3.07067 4.71844 3.58007 4.68907 4.10402 4.68907C5.34588 4.68907 6.30185 4.91878 6.97116 5.37777C7.64088 5.83692 7.9753 6.54687 7.9753 7.50771C7.9753 7.98811 7.84943 8.40201 7.59718 8.74883C7.34445 9.09592 7.0052 9.34947 6.57843 9.50955C7.06351 9.65932 7.46858 9.93152 7.79375 10.3263C8.11845 10.7216 8.28103 11.2179 8.28103 11.8158C8.28103 12.8728 7.9245 13.6551 7.21149 14.162C6.498 14.6689 5.47221 14.9228 4.13318 14.9228Z" fill="white"/>
<path d="M11.1338 10.7748C11.1338 11.4262 11.2476 11.9255 11.4757 12.2723C11.7037 12.6194 12.0216 12.7928 12.4291 12.7928C12.8366 12.7928 13.1495 12.6165 13.3679 12.2642C13.5862 11.9119 13.6953 11.4155 13.6953 10.7748C13.6953 10.1343 13.5837 9.64052 13.3606 9.29344C13.1373 8.94656 12.8221 8.77294 12.4145 8.77294C12.007 8.77294 11.6916 8.94656 11.4684 9.29344C11.2451 9.64052 11.1338 10.1343 11.1338 10.7748ZM16.2278 10.7748C16.2278 11.437 16.1354 12.0268 15.9512 12.5445C15.767 13.0626 15.5075 13.4975 15.1726 13.8498C14.8379 14.2021 14.4376 14.4691 13.9718 14.6506C13.5062 14.8319 12.9869 14.9228 12.4145 14.9228C11.842 14.9228 11.3229 14.8266 10.8572 14.6346C10.3914 14.4424 9.99115 14.1675 9.65652 13.8097C9.32163 13.4521 9.06186 13.0171 8.8779 12.5044C8.69341 11.992 8.60132 11.4155 8.60132 10.7748C8.60132 10.145 8.69341 9.57371 8.8779 9.06113C9.06186 8.54871 9.32163 8.11382 9.65652 7.75601C9.99115 7.39846 10.3914 7.12345 10.8572 6.93118C11.3229 6.73892 11.842 6.64279 12.4145 6.64279C12.9869 6.64279 13.5062 6.74173 13.9718 6.93926C14.4376 7.13678 14.8379 7.41445 15.1726 7.772C15.5075 8.12981 15.767 8.56469 15.9512 9.07732C16.1354 9.5897 16.2278 10.1558 16.2278 10.7748Z" fill="white"/>
<path d="M19.3279 11.992C19.3279 12.2697 19.4079 12.4672 19.5681 12.5845C19.7282 12.7021 19.9537 12.7606 20.2448 12.7606C20.3904 12.7606 20.5406 12.7475 20.6959 12.7208C20.8512 12.6943 20.987 12.6594 21.1035 12.6165C21.1909 12.7341 21.266 12.8649 21.3292 13.0089C21.3922 13.153 21.4237 13.3267 21.4237 13.5294C21.4237 13.9354 21.2855 14.2663 21.0089 14.5225C20.7324 14.7786 20.2448 14.9067 19.5462 14.9067C18.6922 14.9067 18.0349 14.693 17.5741 14.2663C17.1131 13.8392 16.8827 13.1451 16.8827 12.1841V5.32956C16.9894 5.29759 17.1422 5.26301 17.3412 5.22557C17.5398 5.18813 17.751 5.16948 17.9743 5.16948C18.4011 5.16948 18.7335 5.25228 18.9712 5.41762C19.2089 5.58338 19.3279 5.93286 19.3279 6.46669V7.49169H21.2344C21.2927 7.60928 21.3484 7.75598 21.4019 7.93204C21.4551 8.10832 21.4821 8.30319 21.4821 8.5167C21.4821 8.89049 21.4067 9.16004 21.2563 9.32538C21.1059 9.49113 20.9046 9.57367 20.6524 9.57367H19.3279V11.992Z" fill="white"/>
<path d="M24.6255 14.6506C24.5186 14.6718 24.3611 14.7011 24.1526 14.7386C23.9439 14.7758 23.7327 14.7946 23.5195 14.7946C23.3059 14.7946 23.1142 14.7787 22.9446 14.7467C22.7747 14.7145 22.6315 14.6506 22.5152 14.5544C22.3987 14.4583 22.3088 14.3278 22.2459 14.162C22.1827 13.9967 22.1513 13.7804 22.1513 13.5134V6.99528C22.258 6.97383 22.4155 6.94472 22.6243 6.90707C22.8328 6.86983 23.0439 6.85098 23.2575 6.85098C23.4707 6.85098 23.6625 6.86697 23.8323 6.89915C24.002 6.93112 24.1453 6.99528 24.2617 7.09121C24.3781 7.18734 24.4678 7.31825 24.531 7.48359C24.5939 7.64935 24.6255 7.86547 24.6255 8.1322V14.6506ZM22.0349 4.72104C22.0349 4.31531 22.1586 3.9737 22.406 3.69603C22.6534 3.41862 22.981 3.27958 23.3886 3.27958C23.7961 3.27958 24.1234 3.41862 24.3708 3.69603C24.6182 3.9737 24.7419 4.31531 24.7419 4.72104C24.7419 5.12681 24.6182 5.46842 24.3708 5.74604C24.1234 6.02371 23.7961 6.16233 23.3886 6.16233C22.981 6.16233 22.6534 6.02371 22.406 5.74604C22.1586 5.46842 22.0349 5.12681 22.0349 4.72104Z" fill="white"/>
<path d="M29.9674 8.96517C29.8993 8.92247 29.7999 8.87977 29.6689 8.83686C29.538 8.79437 29.3754 8.77291 29.1814 8.77291C28.7059 8.77291 28.3491 8.91987 28.1117 9.21326C27.8738 9.50713 27.7549 9.92602 27.7549 10.4706C27.7549 11.0899 27.8738 11.5355 28.1117 11.8079C28.3491 12.08 28.6524 12.2163 29.0213 12.2163C29.4189 12.2163 29.7343 12.1149 29.9674 11.9119V8.96517ZM29.0648 6.64276C29.6179 6.64276 30.1202 6.72051 30.5713 6.87507C31.0226 7.02989 31.4032 7.23028 31.7139 7.47571C31.9079 7.62527 32.0607 7.79061 32.1723 7.97215C32.2839 8.15389 32.3397 8.38865 32.3397 8.67678V14.2823C32.3397 14.8481 32.2425 15.3364 32.0486 15.7476C31.8544 16.1584 31.59 16.5002 31.2554 16.7726C30.9207 17.0448 30.5276 17.2449 30.0765 17.373C29.6252 17.5014 29.1426 17.5653 28.6283 17.5653C27.7452 17.5653 27.0514 17.4343 26.5469 17.1729C26.0423 16.9112 25.7901 16.4869 25.7901 15.8998C25.7901 15.6539 25.8361 15.4378 25.9284 15.2512C26.0205 15.0642 26.1248 14.9227 26.2414 14.8266C26.5226 14.9974 26.8402 15.1415 27.1945 15.2591C27.5486 15.3765 27.915 15.4354 28.2934 15.4354C28.8174 15.4354 29.2344 15.3392 29.5452 15.147C29.8556 14.9547 30.0109 14.6453 30.0109 14.2181V13.9619C29.613 14.1541 29.128 14.2501 28.5554 14.2501C28.119 14.2501 27.7041 14.178 27.3111 14.034C26.9182 13.8899 26.5736 13.6656 26.2776 13.3612C25.9816 13.0571 25.744 12.6647 25.5646 12.1841C25.3848 11.7036 25.2953 11.1326 25.2953 10.4706C25.2953 9.81937 25.3898 9.25336 25.5792 8.77291C25.7682 8.29251 26.0302 7.89486 26.3651 7.57975C26.6997 7.26485 27.0975 7.02989 27.5586 6.87507C28.0193 6.72051 28.5214 6.64276 29.0648 6.64276Z" fill="white"/>
<path d="M36.3129 12.9369C36.4777 12.9369 36.6597 12.9183 36.8587 12.8809C37.0573 12.8436 37.2055 12.7928 37.3025 12.7287V11.4474L36.2546 11.5436C35.9829 11.565 35.7598 11.6292 35.5851 11.7358C35.4104 11.8427 35.3231 12.0028 35.3231 12.2163C35.3231 12.43 35.3982 12.6034 35.5486 12.7368C35.6991 12.8704 35.9537 12.9369 36.3129 12.9369ZM36.1963 6.64279C36.7204 6.64279 37.1982 6.70169 37.6301 6.81907C38.0617 6.93665 38.4306 7.11532 38.7361 7.35555C39.0418 7.59572 39.277 7.9001 39.442 8.26843C39.607 8.63671 39.6894 9.07206 39.6894 9.57371V13.1611C39.6894 13.4388 39.619 13.6657 39.4785 13.8417C39.3378 14.0179 39.1703 14.1702 38.9764 14.2983C38.3455 14.7145 37.4576 14.9228 36.3129 14.9228C35.7985 14.9228 35.3352 14.8693 34.9229 14.7627C34.5102 14.6561 34.1561 14.496 33.8603 14.2823C33.5644 14.0688 33.3364 13.7966 33.1763 13.4655C33.0161 13.1346 32.9362 12.7501 32.9362 12.3124C32.9362 11.5755 33.1349 11.0097 33.5328 10.6147C33.9306 10.2199 34.5467 9.97401 35.3814 9.87809L37.2879 9.65385V9.54174C37.2879 9.23215 37.1642 9.01072 36.9168 8.87694C36.6694 8.74357 36.3129 8.67681 35.847 8.67681C35.4782 8.67681 35.1194 8.71972 34.77 8.80492C34.4208 8.89053 34.1053 8.99718 33.8239 9.12529C33.6978 9.02915 33.5911 8.88241 33.5038 8.68494C33.4164 8.48741 33.3729 8.28203 33.3729 8.06831C33.3729 7.79064 33.4334 7.56927 33.5547 7.40372C33.6759 7.23817 33.8626 7.09673 34.115 6.97909C34.3964 6.86177 34.7287 6.77657 35.1121 6.72293C35.4952 6.66971 35.8566 6.64279 36.1963 6.64279Z" fill="white"/>
<path d="M41.4868 7.53302C41.5237 7.53302 41.553 7.52516 41.5751 7.50928C41.5973 7.49345 41.6083 7.46611 41.6083 7.4271C41.6083 7.35904 41.5665 7.32488 41.4832 7.32488C41.4708 7.32488 41.4604 7.3255 41.4518 7.32665C41.4432 7.328 41.4364 7.32857 41.4315 7.32857V7.53302H41.4868ZM41.4315 7.73018V8.00764C41.4168 8.01009 41.3977 8.01248 41.3745 8.01493C41.3511 8.01733 41.3235 8.01858 41.2916 8.01858C41.2498 8.01858 41.2173 8.01123 41.194 7.99665C41.1706 7.98202 41.159 7.95051 41.159 7.90172V7.21901C41.159 7.1874 41.1786 7.16422 41.2179 7.14964C41.2523 7.13746 41.2916 7.12892 41.3357 7.12407C41.38 7.11923 41.4266 7.11678 41.4757 7.11678C41.6108 7.11678 41.712 7.14412 41.7796 7.19891C41.8471 7.25364 41.8809 7.32977 41.8809 7.4271C41.8809 7.49042 41.8655 7.54214 41.8349 7.58229C41.8041 7.62244 41.7667 7.65347 41.7225 7.6754C41.7569 7.72409 41.7912 7.76908 41.8257 7.81048C41.86 7.85188 41.8869 7.88953 41.9067 7.92364C41.8968 7.9577 41.8778 7.98332 41.8496 8.00035C41.8214 8.01733 41.7912 8.02587 41.7593 8.02587C41.7151 8.02587 41.6807 8.0155 41.6562 7.99483C41.6317 7.97421 41.6083 7.94682 41.5863 7.91271L41.4684 7.73018H41.4315ZM40.8312 7.59869C40.8312 7.69857 40.8466 7.78923 40.8773 7.87068C40.9079 7.95228 40.9527 8.02285 41.0116 8.08242C41.0706 8.14215 41.1412 8.18839 41.2234 8.2212C41.3057 8.25406 41.3984 8.27047 41.5015 8.27047C41.6047 8.27047 41.6973 8.25406 41.7796 8.2212C41.8619 8.18839 41.9312 8.14215 41.9877 8.08242C42.0442 8.02285 42.0877 7.95228 42.1185 7.87068C42.1491 7.78923 42.1644 7.69857 42.1644 7.59869C42.1644 7.50141 42.1491 7.41065 42.1185 7.32665C42.0877 7.24275 42.0442 7.17032 41.9877 7.10949C41.9312 7.04862 41.8619 7.00117 41.7796 6.96706C41.6973 6.93301 41.6047 6.91593 41.5015 6.91593C41.3984 6.91593 41.3057 6.93301 41.2234 6.96706C41.1412 7.00117 41.0706 7.04862 41.0116 7.10949C40.9527 7.17032 40.9079 7.24275 40.8773 7.32665C40.8466 7.41065 40.8312 7.50141 40.8312 7.59869ZM40.4998 7.59869C40.4998 7.46486 40.5237 7.33946 40.5716 7.2226C40.6194 7.10579 40.6876 7.00419 40.776 6.9178C40.8644 6.83146 40.9699 6.76319 41.0927 6.71335C41.2155 6.66341 41.3518 6.63847 41.5015 6.63847C41.6489 6.63847 41.7838 6.66341 41.9067 6.71335C42.0294 6.76319 42.1356 6.83146 42.2252 6.9178C42.3149 7.00419 42.3842 7.10579 42.4333 7.2226C42.4824 7.33946 42.5069 7.46486 42.5069 7.59869C42.5069 7.73258 42.4824 7.85792 42.4333 7.97478C42.3842 8.09153 42.3149 8.19266 42.2252 8.27781C42.1356 8.36306 42.0294 8.43055 41.9067 8.48043C41.7838 8.53027 41.6489 8.55527 41.5015 8.55527C41.3518 8.55527 41.2155 8.53027 41.0927 8.48043C40.9699 8.43055 40.8644 8.36306 40.776 8.27781C40.6876 8.19266 40.6194 8.09153 40.5716 7.97478C40.5237 7.85792 40.4998 7.73258 40.4998 7.59869Z" fill="white"/>
</svg>
