<svg xmlns="http://www.w3.org/2000/svg" width="46" height="18" viewBox="0 0 46 18" fill="none">
    <path d="M19.7643 4.92418C19.6599 5.30657 19.9059 5.71103 20.398 5.72573C20.8678 5.74044 21.1511 5.461 21.2331 5.13008C21.3375 4.69622 21.0691 4.30647 20.5993 4.31382C20.1967 4.33588 19.8761 4.52708 19.7643 4.92418Z" fill="white"/>
    <path d="M41.7594 5.46824C42.2515 5.21822 42.6839 4.81376 42.915 4.30636C43.1313 3.85778 43.0269 3.3945 42.6243 3.27684C42.3111 3.18859 41.8861 3.33567 41.7221 3.68129C41.5357 4.08574 41.6102 4.52697 41.9681 4.65198C41.8712 4.76964 41.6326 4.95348 41.5059 5.04173C41.3418 5.15939 41.2673 5.31381 41.3418 5.43883C41.4537 5.59326 41.6252 5.53442 41.7594 5.46824Z" fill="white"/>
    <path d="M40.9765 14.6825C40.984 14.5354 40.8274 14.4104 40.5366 14.4031C33.0881 14.1457 20.838 13.6898 9.05007 16.7563C8.61762 16.8592 8.32684 16.9842 8.31938 17.1828C8.31193 17.3887 8.44614 17.5578 8.81148 17.6534C9.46015 17.8226 10.1312 17.9329 10.504 17.9696C10.7873 18.0064 11.1452 18.0137 11.4956 17.9696C11.9355 17.9108 12.4276 17.7637 12.7408 17.6608C20.7858 15.0134 30.8215 14.7781 40.4844 14.9325C40.82 14.9325 40.9691 14.8075 40.9765 14.6825Z" fill="white"/>
    <path d="M44.5628 7.40983C44.4286 7.09362 44.3316 6.7627 44.4062 6.52003C44.4882 6.26265 44.6746 6.21853 44.8014 5.83614C44.9058 5.52728 44.8536 5.13753 44.4733 5.13018C44.0483 5.11547 43.847 5.43904 43.6532 5.99792C42.9597 7.26276 41.0287 8.85851 40.4322 9.32915C39.8581 9.77772 39.7686 9.93215 39.9326 10.1528C40.0892 10.366 40.3874 10.3293 41.0063 9.85861C41.7817 9.27032 43.1611 7.954 43.7203 7.1598C43.765 7.99077 44.108 8.76291 43.8768 9.93951C43.7724 10.469 43.504 11.1602 42.8628 11.4397C42.4005 11.6456 41.7444 11.4911 41.5506 11.0279C41.9308 10.9396 42.1098 10.7264 42.1172 10.344C42.1247 9.99098 41.9234 9.7336 41.5804 9.68213C41.3343 9.65271 41.0137 9.72625 40.8497 9.99098C40.708 10.2189 40.6409 10.5425 40.723 10.9028C40.9094 11.7559 41.7221 12.1383 42.5497 12.1677C43.5935 12.2044 44.7343 11.5573 45.04 10.4322C45.3382 9.35856 44.9207 8.26286 44.5628 7.40983Z" fill="white"/>
    <path d="M37.5319 7.65254C38.8889 6.24062 40.2682 4.6081 40.641 3.13736C40.902 2.1299 40.6783 1.4313 39.7016 1.46071C37.4275 1.53425 34.1319 5.36553 33.7368 9.13063C33.6995 9.4689 33.707 9.80717 33.7442 10.1381C33.103 10.7484 32.5662 11.1603 31.8504 11.5426C31.5224 11.7191 31.2018 11.7853 31.0004 11.5794C30.8662 11.4397 30.8439 11.1308 30.993 10.7779C31.2838 10.1013 31.7759 9.49832 32.2232 8.73353C32.5215 8.23348 32.5886 7.63783 32.4618 7.28485C32.3276 6.92452 31.925 6.68185 31.4627 6.68185C30.7022 6.68185 29.9268 7.07895 29.3228 7.50546C29.3228 7.50546 31.9995 3.04911 32.2903 2.55642C32.5438 2.1299 32.3351 2.0196 32.0219 2.0196H31.321C31.1048 2.0196 30.993 2.12255 30.829 2.40199C28.8009 5.85088 27.511 8.04964 26.676 9.4689C26.5045 9.65275 26.3032 9.866 26.0571 10.1234C25.1177 11.0647 23.8949 12.0501 22.9853 12.1677C22.5305 12.2265 22.1651 12.0501 21.9414 11.7191C23.2015 11.0058 24.5883 10.1602 25.1997 9.07916C25.5278 8.51292 25.6769 8.13788 25.565 7.58635C25.4607 7.06424 25.0655 6.83627 24.5212 6.7848C23.6787 6.71126 22.6721 7.02747 21.8892 7.76284C21.1213 8.48351 20.7187 9.20417 20.5173 9.93954C20.3533 10.5278 20.3757 11.2191 20.5994 11.7927C20.1371 12.0427 19.6375 12.2413 19.2573 12.3589C18.2358 12.6825 17.7661 11.9103 18.3402 10.6455C18.6012 10.0793 19.5555 8.24819 20.0327 7.52017C20.1893 7.28485 20.1296 7.09365 19.8314 7.10101C19.5928 7.10836 19.138 7.12307 18.9441 7.13778C18.7279 7.15248 18.6086 7.21131 18.4968 7.3878C18.1091 7.9761 17.2815 9.85865 16.7073 10.7779C16.3196 11.3956 15.9468 11.9103 15.41 12.3295C14.8508 12.7707 14.2543 12.5869 14.1649 11.9912C14.0605 11.2559 14.3438 10.2852 14.3513 9.5645C14.3587 8.47615 14.1276 7.7702 13.6579 7.21867C17.3187 5.895 19.4213 2.18138 21.5537 1.18863C21.6805 1.1298 21.8147 1.07832 21.9489 1.0342C22.5752 0.828294 23.1866 0.820941 23.3357 1.26216C23.5072 1.76957 22.9107 2.38728 22.2397 2.60789C21.6656 2.79909 21.3972 2.98293 21.4493 3.15207C21.509 3.34326 21.7849 3.33591 22.2248 3.28443C23.291 3.14471 24.387 2.15932 24.1559 1.04155C24.0067 0.328242 23.3059 -0.0467969 22.3441 0.00467904C22.1353 0.0120327 21.9265 0.0488013 21.7252 0.0929235C18.974 0.74005 16.7073 4.50515 14.2543 6.18179C13.8368 6.46859 13.5758 6.60831 13.2105 6.76274C12.8079 6.43182 12.3158 6.18179 11.5553 6.18915C12.2114 4.78459 12.7109 3.56387 13.6131 2.39463C13.9561 2.18873 14.4929 2.04166 14.8284 1.79898C15.1938 1.5269 15.3429 1.19598 15.2087 0.982722C15.0521 0.732696 14.5675 0.68122 14.2096 0.79888C13.9561 0.87977 13.7846 1.08567 13.4193 1.41659C13.0539 1.74015 12.2412 1.83575 11.3689 1.67397C10.9812 1.60043 10.6084 1.47542 10.2356 1.32835C9.3483 0.990076 8.42376 0.556207 7.25318 0.556207C5.58304 0.548854 4.38263 1.31364 4.36026 2.55642C4.33789 3.77713 5.52339 4.42426 6.80582 4.18894C7.08169 4.14482 7.49177 3.9095 7.49177 3.75507C7.49177 3.58594 7.02204 3.54181 6.78345 3.54181C5.7247 3.51975 5.17296 3.2109 5.19533 2.63731C5.21024 2.11519 5.75453 1.72545 6.75363 1.71809C7.78255 1.71074 8.66981 2.17402 9.95969 2.40934C9.96715 2.40934 9.98206 2.4167 9.98952 2.4167C9.98952 2.4167 9.99697 2.4167 10.0044 2.4167C10.6904 2.54171 11.4956 2.59318 12.4947 2.48288C11.4658 3.57123 9.92241 5.7994 8.82639 7.77755C7.05187 10.9985 6.26153 12.3001 4.94183 12.9325C4.01729 13.3737 2.77959 13.4767 2.08619 12.9251C1.82523 12.7192 1.67611 12.4104 1.67611 12.153C1.67611 12.0133 1.71339 11.9839 1.75067 11.9839C2.33969 11.9618 2.62302 11.7044 2.67521 11.322C2.74232 10.8073 2.37697 10.4543 1.89979 10.4837C1.11691 10.5425 0.721747 11.1308 0.751571 12.0133C0.796307 13.0502 1.63138 14.065 3.30897 14.0797C7.14879 14.1091 9.20664 10.6308 10.6531 7.99081C10.7426 7.82167 10.832 7.65254 10.9215 7.4834C11.3018 7.61577 11.8311 7.64518 12.5842 7.52017C12.8302 8.38791 12.45 9.66745 12.4574 10.8661C12.4724 12.5575 13.0241 13.4693 14.1499 13.5208C15.1043 13.5576 16.1258 12.881 16.7595 11.903C16.8714 12.8884 17.617 13.2781 18.3849 13.2561C19.0634 13.234 19.9731 12.8369 20.8901 12.3295C21.2108 12.7487 21.6954 13.0281 22.3664 13.0207C23.4252 13.006 24.4466 12.381 25.5576 11.3956C25.1624 12.0721 25.1177 12.1677 25.0282 12.3369C24.9089 12.5722 25.0058 12.8001 25.2221 12.7928C25.4085 12.7854 25.7291 12.7634 25.9155 12.7487C26.169 12.7339 26.2957 12.631 26.3852 12.4913C26.5194 12.2854 27.5334 10.4617 28.0404 9.70422C28.7786 8.60117 29.718 7.96875 30.225 7.77755C30.9557 7.49811 31.239 7.99081 30.8066 8.60852C30.1803 9.49096 29.7031 10.2852 29.6062 10.9323C29.472 11.8147 29.9119 12.5133 30.8961 12.5501C31.4105 12.5722 31.8579 12.4104 32.3723 12.0942C33.1179 11.6309 33.4236 11.3882 33.9455 10.9249C34.2438 11.6897 34.8477 12.256 35.8095 12.3221C37.4126 12.4324 38.3073 11.6456 39.0156 10.9396C39.2766 10.6749 39.2766 10.4175 39.1274 10.2705C38.9858 10.1307 38.6652 10.2043 38.4713 10.4028C37.9196 10.9544 37.2113 11.5206 36.3464 11.4765C35.5933 11.4397 35.1982 10.8367 35.0938 9.99102C36.1674 9.03503 36.7341 8.48351 37.5319 7.65254ZM11.6969 7.10836C11.3167 7.10836 11.1676 7.01276 11.1974 6.82892C11.2198 6.69655 11.3763 6.66714 11.5105 6.67449C11.9504 6.68185 12.1816 6.7848 12.368 7.05689C12.1219 7.10101 11.9057 7.10836 11.6969 7.10836ZM21.8445 9.93954C22.1651 8.91737 22.7765 8.17465 23.3804 7.79961C23.6861 7.60841 24.0515 7.59371 24.1857 7.68195C24.4988 7.88786 24.5809 8.60117 23.7458 9.50567C23.2761 10.0057 22.7467 10.5352 21.7252 11.1455C21.673 10.7926 21.7028 10.3808 21.8445 9.93954ZM35.1012 8.96885C35.1087 8.90267 35.1161 8.84384 35.1236 8.77765C35.5188 6.25533 37.5915 3.4168 38.9187 2.55642C39.5002 2.18138 39.888 2.3211 39.709 2.90939C39.4033 3.92421 38.3147 5.43907 37.4275 6.50536C36.6893 7.41722 35.9065 8.23348 35.1012 8.96885Z" fill="white"/>
</svg>
