<svg width="143" height="28" viewBox="0 0 143 28" fill="none" xmlns="http://www.w3.org/2000/svg">
<path d="M5.03505 18.1148L4.76147 10.8984C4.80056 11.8371 6.10983 12.0327 7.18461 12.0327L7.34094 19.5815C5.93396 19.386 4.99597 18.9753 5.03505 18.1148Z" fill="white"/>
<path fill-rule="evenodd" clip-rule="evenodd" d="M5.46495 18.154C5.46495 18.3887 5.56266 18.5256 5.87532 18.7211C6.10982 18.858 6.46157 18.9754 6.89148 19.0536L6.75469 12.4434C6.30523 12.4239 5.85578 12.3652 5.44541 12.2088C5.38679 12.1892 5.30862 12.1696 5.25 12.1305L5.4845 18.0758L5.03504 18.1149L5.46495 18.0953V18.154ZM7.26276 20.0119C6.55927 19.8945 5.93395 19.7576 5.44541 19.4838C4.95688 19.2296 4.58559 18.7407 4.58559 18.154V18.1149L4.31201 10.918C4.31201 10.8593 4.31201 10.8007 4.33155 10.7616C4.35109 10.7224 4.37064 10.6638 4.40972 10.6247C4.46834 10.566 4.52697 10.5269 4.60513 10.5073L4.6833 10.4878C4.80055 10.4878 4.9178 10.5269 4.99596 10.6051C5.05458 10.6638 5.09367 10.7224 5.11321 10.7811C5.13275 10.8202 5.13275 10.8593 5.13275 10.8985C5.15229 11.1331 5.26954 11.27 5.67991 11.4265C6.07074 11.5634 6.6179 11.6221 7.12597 11.6221C7.36047 11.6221 7.55588 11.8176 7.55588 12.0523L7.77084 19.5816C7.77084 19.699 7.71221 19.8359 7.61451 19.9141C7.53634 19.9923 7.43864 20.0314 7.32139 20.0314L7.26276 20.0119Z" fill="white"/>
<path d="M9.80303 5.05107C5.24988 5.52043 1.71289 9.47088 1.71289 14.2623C1.71289 19.347 5.71888 23.4735 10.6628 23.5126C10.5651 23.9428 10.4674 24.3535 10.3697 24.7446C12.5974 24.7642 17.2874 24.3535 19.3588 24.0015C19.9646 21.7525 20.5899 18.9363 20.5508 16.8046C22.4659 16.6873 24.4004 16.2375 26.1201 15.8268C26.765 13.7929 26.765 9.90112 25.7683 7.63255C24.0682 8.27792 21.5669 8.70817 19.8278 8.76684C19.476 6.57649 18.6748 4.62082 17.9322 3.0954C14.962 3.33008 12.2262 3.58432 9.25587 3.819C9.43174 4.2688 9.62716 4.65993 9.80303 5.05107Z" fill="white"/>
<path fill-rule="evenodd" clip-rule="evenodd" d="M9.80303 5.05092L10.0766 4.93358L9.80303 5.05092ZM10.8192 5.63762C10.6238 5.97009 10.2916 6.18521 9.92027 6.22433C5.99245 6.63502 2.88537 10.0574 2.88537 14.2621C2.88537 18.721 6.38328 22.3195 10.6824 22.339C11.0341 22.339 11.3663 22.4955 11.5813 22.7888C11.7572 23.004 11.8353 23.2582 11.8353 23.532C13.8676 23.4342 16.6816 23.1995 18.4403 22.9648C18.9484 20.9701 19.3979 18.6819 19.3979 17.0196C19.3979 16.9609 19.3979 16.9023 19.3979 16.8436C19.3979 16.2178 19.8668 15.7093 20.4922 15.6702C22.0359 15.5724 23.6579 15.24 25.2016 14.8879C25.3384 14.1839 25.4361 13.2647 25.4361 12.3456C25.4361 11.2504 25.3189 10.0965 25.0649 9.15783C23.3648 9.64674 21.4302 9.94009 19.8864 9.97921C19.3001 9.99876 18.7921 9.56852 18.6944 9.00137C18.4208 7.28039 17.8345 5.69629 17.2288 4.36644C15.0987 4.54245 13.0664 4.71846 10.956 4.89447C10.9951 5.12915 10.956 5.40294 10.8192 5.63762ZM10.3697 25.9179C10.018 25.9179 9.66624 25.7615 9.45128 25.4681C9.25587 25.2139 9.1777 24.901 9.21678 24.5685C4.29235 23.8253 0.540405 19.4838 0.540405 14.2621C0.540405 9.43162 3.74519 5.34427 8.14201 4.17087C8.0443 3.85797 8.08338 3.50595 8.25926 3.2126C8.45467 2.89969 8.78687 2.68457 9.15816 2.66501C12.1285 2.41077 14.8642 2.17609 17.8345 1.92185C18.3231 1.88274 18.7725 2.13698 18.9875 2.56723C19.6519 3.89708 20.3554 5.59851 20.7853 7.53462C22.29 7.39773 24.1464 7.02615 25.358 6.53723C25.9442 6.32211 26.5891 6.5959 26.8431 7.16305C27.488 8.66891 27.742 10.5268 27.742 12.3065C27.742 13.7341 27.5857 15.1031 27.234 16.1787C27.1167 16.5698 26.7845 16.8632 26.3937 16.9609C24.9671 17.313 23.3452 17.6845 21.6842 17.8801C21.5474 19.9922 21.0002 22.339 20.4726 24.2947C20.3554 24.7249 19.9841 25.0574 19.5346 25.1356C17.3851 25.4877 12.8319 25.8788 10.4479 25.8788H10.3697V25.9179Z" fill="white"/>
<path d="M19.7301 14.2426C19.7301 9.13833 15.7045 4.99231 10.7215 4.99231C5.73842 4.99231 1.71289 9.13833 1.71289 14.2426C1.71289 19.3469 5.73842 23.4929 10.7215 23.4929C15.7045 23.4929 19.7301 19.3469 19.7301 14.2426Z" fill="#36A9E1"/>
<path d="M3.94051 19.034L3.54968 12.9519C3.56922 12.4239 4.25317 12.1501 5.99236 11.8567C7.08667 11.6612 7.712 11.5634 8.82586 11.5047C8.41549 9.76418 7.55567 8.8059 6.69585 7.3587C9.45118 7.16314 12.0111 6.96757 14.7664 6.772C15.5872 7.96496 16.5056 9.50994 17.0332 11.27C18.8897 11.2309 20.6679 10.9767 22.5244 10.3704C23.8337 12.9324 23.775 15.064 23.5601 16.8437C21.9772 17.1762 20.1794 17.5282 18.4207 17.626C18.6356 19.3078 18.3034 21.5177 17.9126 23.2974L9.54889 23.8841C9.88109 22.1044 10.1742 19.9532 9.9788 18.1149C8.55228 18.0953 7.08667 18.5647 6.18777 18.7407C6.12915 18.7407 6.07052 18.7407 6.03144 18.7407L6.22685 20.4812C4.89804 20.3248 3.97959 19.7185 3.94051 19.034Z" fill="#014694"/>
<path fill-rule="evenodd" clip-rule="evenodd" d="M2.06471 14.2426C2.06471 19.1513 5.95344 23.1213 10.702 23.1408C15.4701 23.1213 19.3393 19.1708 19.3393 14.2426C19.3393 9.33383 15.4701 5.36382 10.702 5.34426C5.95344 5.36382 2.08425 9.33383 2.06471 14.2426ZM1.34167 14.2426C1.36122 8.94269 5.52353 4.62067 10.7215 4.62067C15.9 4.62067 20.0819 8.94269 20.1014 14.2426C20.1014 19.5424 15.9196 23.8644 10.7215 23.8644C5.54307 23.8644 1.36122 19.5424 1.34167 14.2426Z" fill="#014694"/>
<path d="M7.47763 9.49043C8.66965 9.25575 9.97893 9.13841 11.0537 9.06018C10.8192 6.85028 10.018 5.63776 9.25589 3.79943C12.2262 3.56475 14.962 3.31052 17.9323 3.07584C18.6748 4.60126 19.476 6.55693 19.8278 8.76683C21.5865 8.70816 24.0878 8.27792 25.7684 7.63254C26.765 9.90112 26.765 13.7733 26.1201 15.8268C24.4005 16.2375 22.4463 16.6873 20.5313 16.8046C20.5704 18.9168 19.945 21.7525 19.3393 24.0015C17.2679 24.3535 12.5779 24.7446 10.3502 24.7446C10.8974 22.4956 11.4836 19.5035 11.5032 17.1567C10.018 17.1175 8.41561 17.4891 7.43854 17.7434C5.69936 17.802 5.46486 16.2375 5.42578 17.0784C5.40624 17.7434 5.54303 17.6456 6.79368 17.8216L6.34423 13.3431C5.05449 13.6169 4.82 12.9324 4.72229 10.8985C4.76137 10.1945 5.89477 9.80334 7.47763 9.49043Z" fill="#FFD500"/>
<path fill-rule="evenodd" clip-rule="evenodd" d="M11.5422 16.785C11.7376 16.785 11.8939 16.9611 11.8939 17.1566C11.8744 19.3861 11.3663 22.1631 10.8387 24.373C13.0859 24.3339 17.0724 24.0015 19.0656 23.6886C19.6323 21.5569 20.199 18.9754 20.1795 17.0197V16.8242C20.1795 16.6286 20.3358 16.4721 20.5312 16.4526C22.329 16.3352 24.1659 15.9245 25.8465 15.5334C26.081 14.6925 26.2178 13.5191 26.2178 12.3066C26.2178 10.8203 26.0028 9.27527 25.5729 8.10187C23.8337 8.68857 21.5278 9.07971 19.8473 9.13838C19.6714 9.13838 19.4955 9.02104 19.476 8.82547C19.1438 6.77202 18.4207 4.93369 17.7173 3.46694C15.001 3.68206 12.4997 3.89718 9.80299 4.13186C10.4869 5.67684 11.21 6.92847 11.4249 9.02104C11.4445 9.11882 11.4054 9.2166 11.3468 9.29483C11.2881 9.37306 11.1904 9.41217 11.0927 9.43173C10.0179 9.50995 8.70867 9.62729 7.55573 9.86197C6.77407 10.0184 6.10967 10.1944 5.67976 10.39C5.2303 10.6051 5.11306 10.7811 5.1326 10.8594C5.17168 11.7199 5.24985 12.3261 5.38664 12.639C5.54297 12.9519 5.58205 12.991 5.91425 13.0106C6.01196 13.0106 6.14875 12.991 6.30508 12.9519C6.40279 12.9324 6.50049 12.9519 6.5982 13.0106C6.67637 13.0693 6.73499 13.1671 6.75453 13.2648L7.1649 17.3326C7.24307 17.3326 7.32123 17.3522 7.3994 17.3522H7.43848C8.37647 17.1175 9.88116 16.7655 11.3468 16.7655C11.4054 16.7655 11.464 16.7655 11.5422 16.785ZM10.0961 24.9597C10.0179 24.862 9.9984 24.7446 10.0375 24.6468C10.5651 22.5347 11.1123 19.7381 11.1709 17.5086C9.84207 17.5282 8.45463 17.8607 7.57527 18.0758L7.49711 18.0953H7.37986C7.28215 18.0953 7.1649 18.0953 7.08674 18.0758C7.00857 18.154 6.89132 18.1736 6.79362 18.1736C6.36371 18.1149 6.07058 18.0953 5.81655 18.0367C5.60159 17.9976 5.32801 17.9193 5.19122 17.6455C5.11306 17.4695 5.09351 17.3326 5.09351 17.1762C5.09351 17.1371 5.09351 17.0784 5.09351 17.0393C5.11306 16.8828 5.07397 16.8046 5.19122 16.5895C5.2303 16.5112 5.38664 16.4135 5.50388 16.433C5.71884 16.4526 5.75792 16.5308 5.81655 16.5699C5.87517 16.609 5.89471 16.6481 5.93379 16.6873C6.01196 16.7655 6.10967 16.8633 6.22692 16.9611C6.266 17.0002 6.32462 17.0393 6.38325 17.0588L6.05104 13.7146C5.99242 13.7146 5.95334 13.7146 5.89471 13.7146C5.34755 13.7342 4.85902 13.4017 4.68315 12.8933C4.48773 12.4043 4.42911 11.759 4.37048 10.8398C4.39002 10.2531 4.83948 9.92064 5.34755 9.68596C5.87517 9.45128 6.57866 9.27527 7.37986 9.09926C8.45463 8.88414 9.62712 8.7668 10.6237 8.68857C10.3501 6.79157 9.62712 5.65729 8.88454 3.91674C8.84546 3.7994 8.84546 3.68206 8.90409 3.58428C8.96271 3.48649 9.06042 3.42782 9.17767 3.40827C12.187 3.19314 14.9228 2.95846 17.9127 2.70423C18.069 2.68467 18.2058 2.78245 18.2644 2.89979C18.9874 4.36654 19.7496 6.24399 20.1404 8.37567C21.8209 8.27788 24.1073 7.86719 25.6511 7.28049C25.8269 7.20226 26.0419 7.30005 26.1201 7.47606C26.7063 8.80591 26.9408 10.6051 26.9408 12.287C26.9408 13.656 26.7845 14.9663 26.4718 15.9245C26.4327 16.0419 26.335 16.1397 26.1982 16.1788C24.5763 16.5699 22.7394 17.0002 20.9025 17.1371C20.883 19.2687 20.2772 21.9285 19.6909 24.0797C19.6519 24.2166 19.5346 24.3144 19.3978 24.3535C17.3264 24.7055 12.7537 25.0966 10.4479 25.0966H10.3501C10.2524 25.0966 10.1547 25.038 10.0961 24.9597Z" fill="#014694"/>
<path d="M20.0819 13.2062L20.2968 13.3822C20.4532 13.5191 20.6486 13.7733 20.8049 14.184C20.8635 13.0106 19.7692 11.7785 18.968 12.9519C19.2611 12.9519 19.6129 12.8737 20.0819 13.2062Z" fill="#014694"/>
<path d="M11.7961 12.111C11.757 14.1644 13.418 15.7094 15.294 16.1201C17.2091 16.5308 19.3586 15.7485 20.1793 13.1083L19.9839 12.9323C19.2023 15.3574 16.9159 15.9636 15.0204 15.3769C13.4962 14.9076 12.2065 13.6559 12.1283 11.9741L11.7961 12.111Z" fill="#014694"/>
<path d="M11.6204 12.4043L11.8744 12.2283C12.3434 12.0327 12.6951 12.1501 12.9883 12.2478C12.5583 11.0549 11.21 11.6807 10.9169 13.1866C11.0927 12.9128 11.3272 12.5999 11.6204 12.4043Z" fill="#014694"/>
<path d="M14.6883 9.39256C15.3136 9.33389 15.9389 10.077 16.0171 11.0353C16.1148 11.974 15.6262 12.7954 15.0009 12.8345C14.3756 12.8932 13.8089 12.1696 13.7112 11.2113C13.633 10.2726 14.0629 9.45123 14.6883 9.39256Z" fill="#014694"/>
<path d="M14.7079 9.70538H14.7861L14.8642 9.72494L14.9619 9.7445L15.0401 9.78361L15.1183 9.82272L15.1964 9.90095L15.2746 9.95962L15.3528 10.0574L15.4309 10.1356L15.4895 10.253L15.5482 10.3703L15.6068 10.4877L15.6654 10.6245L15.7045 10.7614L15.724 10.8983L15.7436 11.0548V11.1917V11.3481V11.485L15.724 11.6219L15.685 11.7393L15.6459 11.8566L15.5873 11.974L15.5482 12.0717L15.4895 12.1695L15.4114 12.2478L15.3528 12.326L15.2746 12.3846L15.1964 12.4433L15.1378 12.4824L15.0596 12.502H14.9815L14.9033 12.5215L14.8251 12.502L14.747 12.4824L14.6688 12.4433L14.5906 12.4042L14.5125 12.3455L14.4343 12.2673L14.3561 12.1891L14.2975 12.0913L14.2194 11.974L14.1607 11.8762L14.1217 11.7393L14.0826 11.6219L14.0435 11.485L14.0044 11.3286L13.9849 11.1917V11.0352V10.8983L14.0044 10.7419V10.605L14.0435 10.4877L14.0826 10.3703L14.1217 10.253L14.1803 10.1356L14.2389 10.0574L14.2975 9.95962L14.3561 9.90095L14.4148 9.82272L14.4929 9.78361L14.5711 9.7445L14.6493 9.72494L14.7079 9.70538Z" fill="white"/>
<path d="M14.8837 10.5269C15.3527 10.5269 15.7631 10.9768 15.7631 11.5439C15.7631 12.111 15.3723 12.5608 14.8837 12.5608C14.3952 12.5608 14.0239 12.111 14.0239 11.5439C14.0044 10.9963 14.3952 10.5269 14.8837 10.5269Z" fill="#014694"/>
<path d="M17.8736 9.0601C17.2482 9.00143 16.6229 9.74459 16.5447 10.6833C16.4666 11.622 16.9551 12.4434 17.5609 12.4825C18.1862 12.5412 18.7529 11.8176 18.8506 10.8593C18.9288 9.94016 18.4793 9.11877 17.8736 9.0601Z" fill="#014694"/>
<path d="M17.8346 9.37296H17.7565L17.6783 9.39251L17.6001 9.41207L17.522 9.45118L17.4438 9.4903L17.3657 9.54897L17.2679 9.62719L17.2093 9.72498L17.1312 9.8032L17.053 9.92054L16.9944 10.0379L16.9553 10.1552L16.8967 10.2921L16.8576 10.429L16.838 10.5659L16.8185 10.7224L16.799 10.8593V11.0157L16.8185 11.1526L16.838 11.2895L16.8771 11.4069L16.9162 11.5242L16.9553 11.6415L17.0139 11.7393L17.0725 11.8371L17.1312 11.9153L17.2093 11.9936L17.2875 12.0522L17.3461 12.1109L17.4243 12.15L17.5024 12.1696H17.5806L17.6588 12.1891L17.7369 12.1696L17.8151 12.15L17.8933 12.1109L17.9714 12.0718L18.0496 12.0131L18.1278 11.9349L18.2059 11.8567L18.2646 11.7589L18.3232 11.6611L18.3818 11.5437L18.4404 11.4264L18.4795 11.2895L18.5186 11.1526L18.5381 10.9962L18.5577 10.8593L18.5772 10.7028V10.5659L18.5577 10.4095L18.5381 10.2726L18.5186 10.1552L18.4795 10.0379L18.4404 9.92054L18.3818 9.8032L18.3232 9.72498L18.2646 9.62719L18.2059 9.56852L18.1278 9.50985L18.0691 9.45118L17.991 9.41207L17.9128 9.39251L17.8346 9.37296Z" fill="white"/>
<path d="M17.6783 10.1943C17.2093 10.1943 16.8185 10.6637 16.8185 11.2113C16.8185 11.7784 17.2093 12.2282 17.6783 12.2282C18.1668 12.2282 18.5577 11.7589 18.5577 11.2113C18.5381 10.6637 18.1473 10.1943 17.6783 10.1943Z" fill="#014694"/>
<path d="M15.47 13.3039C16.0953 12.7172 17.2678 12.815 17.6 13.3626C17.2873 12.3065 15.7826 12.4434 15.47 13.3039Z" fill="#014694"/>
<path d="M5.03505 18.0952L4.76147 10.8788C4.80056 11.8175 6.10983 12.0131 7.18461 12.0131L7.34094 19.562C5.93396 19.3469 4.99597 18.9557 5.03505 18.0952Z" fill="#F9F5BD"/>
<path fill-rule="evenodd" clip-rule="evenodd" d="M5.38663 18.1344C5.38663 18.4082 5.50387 18.5646 5.83608 18.7602C6.09012 18.9167 6.48094 19.034 6.94994 19.1122L6.81315 12.3456C6.34415 12.326 5.87516 12.2674 5.44525 12.1109C5.34754 12.0718 5.24984 12.0327 5.15213 11.9936L5.38663 18.0562L5.03488 18.0953L5.40617 18.0757L5.38663 18.1344ZM7.28214 19.914C6.57865 19.8163 5.97287 19.6598 5.48433 19.4056C5.01534 19.1513 4.64405 18.7015 4.66359 18.1344V18.0953L4.39001 10.918C4.39001 10.8202 4.40956 10.7224 4.48772 10.6637C4.5268 10.6051 4.58543 10.5855 4.64405 10.5659H4.72222C4.81993 10.5659 4.91763 10.6051 4.9958 10.6637C5.07396 10.7224 5.11305 10.8202 5.11305 10.918V10.9375C5.13259 11.2113 5.28892 11.3482 5.69929 11.5047C6.09012 11.6416 6.65682 11.7002 7.18443 11.7002C7.37985 11.7002 7.53618 11.8567 7.55572 12.0523L7.71205 19.6011C7.71205 19.7185 7.67297 19.8163 7.5948 19.8749C7.53618 19.9336 7.43847 19.9727 7.34076 19.9727L7.28214 19.914Z" fill="#014694"/>
<path d="M141.628 10.6575C141.628 10.5111 141.575 10.4012 141.47 10.3323C141.366 10.2633 141.205 10.2297 140.984 10.2297H140.416V11.7808H140.652V11.0985H141.014L141.339 11.7808H141.606L141.262 11.0653C141.371 11.0492 141.463 11.0046 141.529 10.9303C141.594 10.8551 141.628 10.7661 141.628 10.6575ZM141.287 10.8826C141.222 10.9227 141.104 10.9415 140.939 10.9415H140.652V10.3861H140.939C141.095 10.3861 141.212 10.4074 141.281 10.4537C141.351 10.4974 141.387 10.5702 141.387 10.6726C141.387 10.7697 141.352 10.8417 141.287 10.8826Z" fill="white"/>
<path d="M142.196 10.5052C142.127 10.3433 142.03 10.1995 141.907 10.0727C141.781 9.94327 141.635 9.84476 141.47 9.77811C141.305 9.71049 141.13 9.67751 140.943 9.67751C140.761 9.67751 140.591 9.71049 140.427 9.77672C140.267 9.84476 140.125 9.93824 140 10.0651C139.871 10.1946 139.77 10.3447 139.702 10.5125C139.631 10.6763 139.597 10.8506 139.597 11.0272C139.597 11.2058 139.631 11.3763 139.699 11.5409C139.765 11.7024 139.865 11.8459 139.994 11.974C140.121 12.1052 140.267 12.2046 140.428 12.2713C140.592 12.3408 140.763 12.3746 140.943 12.3746C141.122 12.3746 141.295 12.3408 141.46 12.2695C141.628 12.1992 141.776 12.1017 141.907 11.9704C142.034 11.8441 142.132 11.7024 142.196 11.5414C142.263 11.3816 142.297 11.2093 142.297 11.0272C142.297 10.8421 142.261 10.67 142.196 10.5052ZM142.06 11.4924C142.002 11.6339 141.917 11.7586 141.805 11.8675C141.685 11.982 141.554 12.0692 141.405 12.1316C141.256 12.1911 141.104 12.2251 140.943 12.2251C140.786 12.2251 140.635 12.1911 140.491 12.1316C140.345 12.071 140.213 11.982 140.097 11.8703C139.982 11.7559 139.896 11.6255 139.835 11.4804C139.773 11.3366 139.745 11.1839 139.745 11.0272C139.745 10.8706 139.773 10.7168 139.835 10.5702C139.901 10.4229 139.989 10.2926 140.105 10.1733C140.217 10.0611 140.35 9.97568 140.491 9.91602C140.632 9.85636 140.784 9.82869 140.943 9.82869C141.108 9.82869 141.267 9.85636 141.41 9.92007C141.56 9.97876 141.69 10.0651 141.805 10.1809C141.917 10.2926 142 10.4199 142.06 10.5649C142.118 10.7119 142.146 10.8657 142.146 11.0314C142.146 11.1978 142.12 11.3482 142.06 11.4924Z" fill="white"/>
<path d="M47.4949 17.9851C46.8616 18.4559 46.4783 18.6161 45.98 18.6161C45.1911 18.6161 44.6499 18.1208 44.6499 17.3792C44.6499 16.4074 45.3954 15.9585 47.4949 15.7095V17.9851ZM51.4445 18.5273C51.0156 18.5273 50.9239 18.2992 50.9239 17.397V13.1419C50.9239 11.566 50.7893 11.0019 50.2924 10.3941C49.6837 9.69537 48.6679 9.31351 47.3821 9.31351C45.5306 9.31351 44.1504 9.76314 41.8273 11.1602L43.1355 13.2768C44.6499 12.4432 45.4845 12.1295 46.2305 12.1295C47.0181 12.1295 47.4716 12.6029 47.4716 13.4346C47.4716 13.4802 47.4475 13.6604 47.4475 13.7943C45.5981 13.9987 44.5125 14.1993 43.6342 14.5172C41.9837 15.1232 41.1492 16.2034 41.1492 17.7825C41.1492 19.787 42.4816 21.0922 44.4906 21.0922C45.6431 21.0922 46.4554 20.7785 47.6969 19.8535C47.9895 20.7561 48.5115 21.0922 49.5943 21.0922C50.4745 21.0922 51.2187 20.9123 52.4388 20.3724L51.9858 18.3912C51.691 18.5018 51.6024 18.5273 51.4445 18.5273Z" fill="white"/>
<path d="M38.4394 4.17239C37.3315 4.2157 36.293 4.64409 35.6395 5.25188C34.8246 5.99605 34.4195 7.21164 34.4195 8.94686V9.69703H32.7037V11.5398H34.4195V20.756H38.1138V11.5398H40.9578V9.69703H38.1138C38.0909 7.58107 38.5521 6.89656 40.5164 6.89656H40.9664V4.17239H40.2668H38.4394Z" fill="white"/>
<path d="M59.7668 9.69695C58.8495 9.937 57.9067 10.3859 57.1079 11.0695V9.69695H53.4042V20.7559H57.1079V13.7049C58.1679 12.873 59.0893 12.6437 59.7444 12.6437C60.4319 12.6437 60.7226 13.1494 60.7848 13.362V9.69695C60.4637 9.63352 60.1259 9.62388 59.7668 9.69695Z" fill="white"/>
<path d="M132.236 18.2361C131.558 18.2361 131.012 18.0327 130.518 17.603V13.2358C131.395 12.6039 131.849 12.4009 132.551 12.4009C133.859 12.4009 134.784 13.5508 134.784 15.171C134.784 16.9969 133.746 18.2361 132.236 18.2361ZM133.565 9.35993C132.459 9.35993 131.465 9.72098 130.518 10.5076V9.69736H126.822V24.1725H130.518V20.2396C131.284 20.8027 132.096 21.0492 133.067 21.0492C136.25 21.0492 138.486 18.5048 138.486 14.8998C138.486 11.6348 136.478 9.35993 133.565 9.35993Z" fill="white"/>
<path d="M76.2708 9.38043C74.9845 9.38043 73.6526 9.94253 72.1176 11.1162C71.6676 9.9899 70.6497 9.38043 69.2037 9.38043C68.0087 9.38043 67.0158 9.83285 65.6159 10.9587V9.69732H61.8898V20.7563H65.6159V13.5699C66.4728 12.8734 67.0614 12.578 67.6925 12.578C68.5507 12.578 68.8675 13.0746 68.8675 14.4039V20.7563H72.5684V13.5052C73.632 12.8038 74.1285 12.603 74.6929 12.603C75.5517 12.603 75.8655 13.0746 75.8655 14.4039V20.7563H79.6118V13.7051C79.6359 10.6856 78.6197 9.38043 76.2708 9.38043Z" fill="white"/>
<path d="M98.0269 13.9082L97.3936 13.7506C96.6045 13.5468 96.3327 13.3442 96.3327 12.8734C96.3327 12.3309 96.8971 11.9944 97.8014 11.9944C98.6377 11.9944 98.8614 12.039 100.353 12.4666L101.073 10.0802C99.6951 9.58393 98.4114 9.35688 97.0107 9.35688C94.3012 9.35688 92.5167 10.7994 92.5167 13.0301C92.5167 13.1008 92.5237 13.168 92.5271 13.2368C92.5236 13.3053 92.5167 13.372 92.5167 13.4418C92.5167 15.1526 93.5776 16.1878 95.9257 16.7738L96.559 16.9313C97.3479 17.1353 97.6199 17.3377 97.6199 17.8084C97.6199 18.3511 97.0554 18.6876 96.1511 18.6876C95.3147 18.6876 95.0911 18.643 93.599 18.2155L92.879 20.6018C94.2574 21.0981 95.541 21.3251 96.9418 21.3251C99.6513 21.3251 101.436 19.8826 101.436 17.652C101.436 17.5814 101.429 17.5142 101.426 17.445C101.429 17.3768 101.436 17.3101 101.436 17.2402C101.436 15.5294 100.375 14.4941 98.0269 13.9082Z" fill="white"/>
<path d="M112.53 10.5949C111.944 9.89797 111.076 9.49263 110.083 9.49263C108.775 9.49263 107.156 9.98976 105.889 11.0695V4.17239H102.188V17.2051V17.9101V21.0922H105.884V17.4332C105.886 17.433 105.887 17.4328 105.889 17.4327V13.705C106.951 12.8732 107.871 12.6466 108.528 12.6466C109.317 12.6466 109.581 13.0517 109.581 14.5144V20.7561H109.582V21.0922H113.278V17.2051H113.275V13.7941C113.3 11.9715 113.14 11.3391 112.53 10.5949Z" fill="white"/>
<path d="M120.11 18.1863C119.739 18.1863 119.409 18.1226 119.123 17.9979C118.55 17.7363 118.14 17.2137 117.927 16.468C117.832 16.1094 117.784 15.6972 117.784 15.2333C117.784 14.9853 117.784 14.7155 117.796 14.457C117.967 12.9962 118.729 12.22 120.022 12.22C120.393 12.22 120.723 12.2836 121.009 12.4084C121.583 12.6699 121.992 13.1925 122.205 13.9383C122.3 14.2969 122.348 14.709 122.348 15.1731C122.348 15.3906 122.353 15.6034 122.351 15.8062C122.214 17.3593 121.444 18.1863 120.11 18.1863ZM125.838 13.2955C125.256 11.168 123.694 9.79484 121.403 9.41465C121.385 9.41283 121.397 9.41437 121.379 9.41213C120.925 9.33193 120.459 9.31419 119.953 9.31419C116.395 9.31419 114.042 11.6131 114.042 15.1061C114.042 15.119 114.042 15.1317 114.042 15.1446C114.042 15.1592 114.042 15.1739 114.042 15.1887C114.042 15.8808 114.129 16.5235 114.295 17.1107C114.876 19.2382 116.438 20.6114 118.729 20.9917C118.732 20.9846 118.735 20.9776 118.738 20.9703C119.192 21.0505 119.673 21.0922 120.179 21.0922C123.737 21.0922 126.09 18.7932 126.09 15.3002C126.09 15.2874 126.09 15.2745 126.09 15.2616C126.09 15.247 126.09 15.2323 126.09 15.2176C126.09 14.5256 126.003 13.8827 125.838 13.2955Z" fill="white"/>
<path d="M86.878 17.9851C86.2447 18.4559 85.8614 18.6161 85.3631 18.6161C84.5741 18.6161 84.0331 18.1208 84.0331 17.3792C84.0331 16.4074 84.7786 15.9585 86.878 15.7095V17.9851ZM90.8276 18.5273C90.3988 18.5273 90.3071 18.2992 90.3071 17.397V13.1419C90.3071 11.566 90.1725 11.0019 89.6756 10.3941C89.0668 9.69537 88.0511 9.31351 86.7653 9.31351C84.9137 9.31351 83.5334 9.76314 81.2105 11.1602L82.5186 13.2768C84.0331 12.4432 84.8677 12.1295 85.6137 12.1295C86.4012 12.1295 86.8546 12.6029 86.8546 13.4346C86.8546 13.4802 86.8306 13.6604 86.8306 13.7943C84.9812 13.9987 83.8957 14.1993 83.0173 14.5172C81.3669 15.1232 80.5323 16.2034 80.5323 17.7825C80.5323 19.787 81.8648 21.0922 83.8737 21.0922C85.0263 21.0922 85.8386 20.7785 87.0801 19.8535C87.3727 20.7561 87.8946 21.0922 88.9775 21.0922C89.8575 21.0922 90.6019 20.9123 91.822 20.3724L91.3688 18.3912C91.0741 18.5018 90.9856 18.5273 90.8276 18.5273Z" fill="white"/>
</svg>
