<svg width="27" height="20" viewBox="0 0 27 20" fill="none" xmlns="http://www.w3.org/2000/svg">
<path d="M2.86788 9.99257C2.86788 10.4962 2.95883 10.9675 3.14085 11.4062C3.32276 11.845 3.57205 12.2265 3.88882 12.5505C4.2054 12.8747 4.57944 13.1315 5.01074 13.3209C5.44194 13.5105 5.90947 13.6052 6.41321 13.6052C6.9117 13.6052 7.37669 13.5105 7.8081 13.3209C8.2393 13.1315 8.61456 12.8747 8.93376 12.5505C9.25286 12.2265 9.50337 11.845 9.68548 11.4062C9.86739 10.9675 9.95845 10.4962 9.95845 9.99257C9.95845 9.49398 9.86739 9.02524 9.68548 8.58645C9.50337 8.14766 9.25286 7.76492 8.93376 7.43823C8.61456 7.11174 8.2393 6.85375 7.8081 6.66415C7.37669 6.47475 6.9117 6.37995 6.41321 6.37995C5.90947 6.37995 5.44194 6.47475 5.01074 6.66415C4.57944 6.85375 4.2054 7.11174 3.88882 7.43823C3.57205 7.76492 3.32276 8.14766 3.14085 8.58645C2.95883 9.02524 2.86788 9.49398 2.86788 9.99257ZM0.706299 10.0075C0.706299 9.48397 0.773579 8.9779 0.908242 8.48912C1.0428 8.00056 1.23473 7.54426 1.48412 7.12044C1.73342 6.69663 2.03137 6.31014 2.37799 5.96109C2.72441 5.61214 3.10968 5.31409 3.5335 5.06732C3.95732 4.82046 4.4123 4.62853 4.89854 4.49134C5.38478 4.35425 5.89197 4.28565 6.4207 4.28565C6.94417 4.28565 7.44913 4.35425 7.93517 4.49134C8.42141 4.62853 8.87639 4.82046 9.30021 5.06732C9.72403 5.31409 10.1105 5.61214 10.4596 5.96109C10.8085 6.31014 11.1066 6.69663 11.3534 7.12044C11.6002 7.54426 11.7921 8.00056 11.9293 8.48912C12.0664 8.9779 12.135 9.4865 12.135 10.015C12.135 10.5436 12.0664 11.0497 11.9293 11.5333C11.7921 12.0171 11.6002 12.4708 11.3534 12.8946C11.1066 13.3185 10.8085 13.7037 10.4596 14.0502C10.1105 14.3968 9.72403 14.6934 9.30021 14.9403C8.87639 15.187 8.42141 15.3779 7.93517 15.5125C7.44913 15.6471 6.94165 15.7144 6.41321 15.7144C5.88448 15.7144 5.37729 15.6471 4.89105 15.5125C4.40491 15.3779 3.94983 15.1859 3.52601 14.9365C3.1021 14.6872 2.71703 14.3893 2.37051 14.0428C2.02389 13.6962 1.72724 13.3123 1.48038 12.8909C1.23352 12.4696 1.0428 12.0157 0.908242 11.5296C0.773579 11.0435 0.706299 10.5361 0.706299 10.0075Z" fill="white"/>
<path d="M14.7231 4.77182C14.733 4.67712 14.7705 4.59861 14.8352 4.53619C14.9001 4.47387 14.9823 4.4427 15.0822 4.4427H16.952C17.1265 4.4427 17.2411 4.5375 17.2961 4.7269L19.9364 12.0868C20.3801 10.8502 20.8251 9.62362 21.2714 8.4069C21.7177 7.19028 22.1602 5.96365 22.5991 4.7269C22.6688 4.5375 22.7834 4.4427 22.9431 4.4427H24.8205C24.9201 4.4427 25.0011 4.47518 25.0636 4.53993C25.1259 4.60478 25.1595 4.68208 25.1646 4.77182C25.349 6.52203 25.536 8.26475 25.7256 9.99998C25.915 11.7352 26.1044 13.4755 26.294 15.2207V15.2432C26.294 15.4477 26.1842 15.5498 25.9648 15.5498H24.5138C24.2894 15.5498 24.1722 15.4402 24.1622 15.2207L23.3994 8.14506L20.9087 15.0262C20.8837 15.0961 20.8438 15.1609 20.789 15.2207C20.7341 15.2806 20.6768 15.3105 20.6169 15.3105H19.2707C19.2057 15.3105 19.1459 15.2819 19.0911 15.2245C19.0363 15.1672 18.9964 15.1011 18.9715 15.0262C18.5626 13.8744 18.1512 12.7301 17.7374 11.5932C17.3234 10.4563 16.9072 9.30947 16.4883 8.15255L15.7253 15.2207C15.7253 15.4402 15.6106 15.5498 15.3812 15.5498H13.9303C13.7109 15.5498 13.6012 15.4402 13.6012 15.2207L14.7231 4.77182Z" fill="white"/>
</svg>
